<?xml version="1.0" encoding="UTF-8" standalone="no"?>
<!-- Created with Inkscape (http://www.inkscape.org/) -->

<svg
   xmlns:dc="http://purl.org/dc/elements/1.1/"
   xmlns:cc="http://creativecommons.org/ns#"
   xmlns:rdf="http://www.w3.org/1999/02/22-rdf-syntax-ns#"
   xmlns:svg="http://www.w3.org/2000/svg"
   xmlns="http://www.w3.org/2000/svg"
   xmlns:sodipodi="http://sodipodi.sourceforge.net/DTD/sodipodi-0.dtd"
   xmlns:inkscape="http://www.inkscape.org/namespaces/inkscape"
   width="568.32501"
   height="349.98068"
   id="svg3376"
   version="1.1"
   inkscape:version="0.48.4 r9939"
   sodipodi:docname="Speed1.svg">
  <defs
     id="defs3378">
    <inkscape:path-effect
       effect="spiro"
       id="path-effect7767"
       is_visible="true" />
    <inkscape:path-effect
       effect="spiro"
       id="path-effect7763"
       is_visible="true" />
    <marker
       inkscape:stockid="Arrow2Mend"
       orient="auto"
       refY="0"
       refX="0"
       id="Arrow2Mend"
       style="overflow:visible">
      <path
         id="path4185"
         style="fill-rule:evenodd;stroke-width:0.625;stroke-linejoin:round"
         d="M 8.7185878,4.0337352 -2.2072895,0.01601326 8.7185884,-4.0017078 c -1.7454984,2.3720609 -1.7354408,5.6174519 -6e-7,8.035443 z"
         transform="scale(-0.6,-0.6)"
         inkscape:connector-curvature="0" />
    </marker>
    <marker
       inkscape:stockid="Arrow2Lend"
       orient="auto"
       refY="0"
       refX="0"
       id="Arrow2Lend"
       style="overflow:visible">
      <path
         id="path4179"
         style="fill-rule:evenodd;stroke-width:0.625;stroke-linejoin:round"
         d="M 8.7185878,4.0337352 -2.2072895,0.01601326 8.7185884,-4.0017078 c -1.7454984,2.3720609 -1.7354408,5.6174519 -6e-7,8.035443 z"
         transform="matrix(-1.1,0,0,-1.1,-1.1,0)"
         inkscape:connector-curvature="0" />
    </marker>
    <marker
       inkscape:stockid="Arrow1Lend"
       orient="auto"
       refY="0"
       refX="0"
       id="Arrow1Lend"
       style="overflow:visible">
      <path
         id="path4161"
         d="M 0,0 5,-5 -12.5,0 5,5 0,0 z"
         style="fill-rule:evenodd;stroke:#000000;stroke-width:1pt"
         transform="matrix(-0.8,0,0,-0.8,-10,0)"
         inkscape:connector-curvature="0" />
    </marker>
    <marker
       inkscape:stockid="Arrow2Lstart"
       orient="auto"
       refY="0"
       refX="0"
       id="Arrow2Lstart"
       style="overflow:visible">
      <path
         id="path4176"
         style="fill-rule:evenodd;stroke-width:0.625;stroke-linejoin:round"
         d="M 8.7185878,4.0337352 -2.2072895,0.01601326 8.7185884,-4.0017078 c -1.7454984,2.3720609 -1.7354408,5.6174519 -6e-7,8.035443 z"
         transform="matrix(1.1,0,0,1.1,1.1,0)"
         inkscape:connector-curvature="0" />
    </marker>
    <marker
       inkscape:stockid="DotL"
       orient="auto"
       refY="0"
       refX="0"
       id="DotL"
       style="overflow:visible">
      <path
         id="path4219"
         d="m -2.5,-1 c 0,2.76 -2.24,5 -5,5 -2.76,0 -5,-2.24 -5,-5 0,-2.76 2.24,-5 5,-5 2.76,0 5,2.24 5,5 z"
         style="fill-rule:evenodd;stroke:#000000;stroke-width:1pt"
         transform="matrix(0.8,0,0,0.8,5.92,0.8)"
         inkscape:connector-curvature="0" />
    </marker>
    <marker
       inkscape:stockid="DotM"
       orient="auto"
       refY="0"
       refX="0"
       id="DotM"
       style="overflow:visible">
      <path
         id="path4222"
         d="m -2.5,-1 c 0,2.76 -2.24,5 -5,5 -2.76,0 -5,-2.24 -5,-5 0,-2.76 2.24,-5 5,-5 2.76,0 5,2.24 5,5 z"
         style="fill-rule:evenodd;stroke:#000000;stroke-width:1pt"
         transform="matrix(0.4,0,0,0.4,2.96,0.4)"
         inkscape:connector-curvature="0" />
    </marker>
  </defs>
  <sodipodi:namedview
     id="base"
     pagecolor="#ffffff"
     bordercolor="#666666"
     borderopacity="1.0"
     inkscape:pageopacity="0.0"
     inkscape:pageshadow="2"
     inkscape:zoom="0.95019531"
     inkscape:cx="101.60706"
     inkscape:cy="89.351533"
     inkscape:document-units="px"
     inkscape:current-layer="layer1"
     showgrid="false"
     inkscape:window-width="1600"
     inkscape:window-height="845"
     inkscape:window-x="0"
     inkscape:window-y="27"
     inkscape:window-maximized="1"
     units="mm"
     fit-margin-top="4"
     fit-margin-bottom="4"
     fit-margin-left="2"
     fit-margin-right="2" />
  <metadata
     id="metadata3381">
    <rdf:RDF>
      <cc:Work
         rdf:about="">
        <dc:format>image/svg+xml</dc:format>
        <dc:type
           rdf:resource="http://purl.org/dc/dcmitype/StillImage" />
        <dc:title></dc:title>
      </cc:Work>
    </rdf:RDF>
  </metadata>
  <g
     inkscape:label="Layer 1"
     inkscape:groupmode="layer"
     id="layer1"
     transform="translate(-88.167864,-271.73302)">
    <path
       style="fill:none;stroke:#000000;stroke-width:1px;stroke-linecap:butt;stroke-linejoin:miter;stroke-opacity:1;marker-start:url(#DotL);marker-mid:url(#DotL);marker-end:url(#DotL)"
       d="M 129.44707,602.98089 215.74512,493.52971 545.15108,461.95725"
       id="path3384"
       inkscape:connector-curvature="0"
       sodipodi:nodetypes="ccc" />
    <path
       style="fill:none;stroke:#000000;stroke-width:1.16341066;stroke-linecap:butt;stroke-linejoin:miter;stroke-miterlimit:4;stroke-opacity:1;stroke-dasharray:6.98046411, 6.98046411;stroke-dashoffset:1.27975175"
       d="M 129.52878,601.84676 382.99742,286.28561"
       id="path6068"
       inkscape:connector-curvature="0"
       sodipodi:nodetypes="cc" />
    <path
       style="fill:none;stroke:#000000;stroke-width:1;stroke-linecap:butt;stroke-linejoin:miter;stroke-miterlimit:4;stroke-opacity:1;stroke-dasharray:6, 6;stroke-dashoffset:1.1"
       d="m 215.74512,492.47729 c 211.43622,-18.53203 300.0212,-27.22408 433.59506,-44.20144"
       id="path6068-8"
       inkscape:connector-curvature="0"
       sodipodi:nodetypes="cc" />
    <text
       xml:space="preserve"
       style="font-size:20px;font-style:normal;font-variant:normal;font-weight:normal;font-stretch:normal;line-height:125%;letter-spacing:0px;word-spacing:0px;fill:#000000;fill-opacity:1;stroke:none;font-family:Symbol;-inkscape-font-specification:Symbol"
       x="303.09558"
       y="448.27585"
       id="text6338"
       sodipodi:linespacing="125%"><tspan
         sodipodi:role="line"
         id="tspan6340"
         x="303.09558"
         y="448.27585" /></text>
    <text
       xml:space="preserve"
       style="font-size:20px;font-style:normal;font-variant:normal;font-weight:normal;font-stretch:normal;line-height:125%;letter-spacing:0px;word-spacing:0px;fill:#000000;fill-opacity:1;stroke:none;font-family:Symbol;-inkscape-font-specification:Symbol"
       x="350.45428"
       y="625.0816"
       id="text6342"
       sodipodi:linespacing="125%"><tspan
         sodipodi:role="line"
         id="tspan6344"
         x="350.45428"
         y="625.0816" /></text>
    <g
       id="g6350">
      <text
         sodipodi:linespacing="125%"
         id="text6346"
         y="664.021"
         x="384.13156"
         style="font-size:20px;font-style:normal;font-variant:normal;font-weight:normal;font-stretch:normal;line-height:125%;letter-spacing:0px;word-spacing:0px;fill:#000000;fill-opacity:1;stroke:none;font-family:Symbol;-inkscape-font-specification:Symbol"
         xml:space="preserve"><tspan
           style="font-style:normal;font-variant:normal;font-weight:normal;font-stretch:normal;font-family:STIXSizeThreeSym;-inkscape-font-specification:STIXSizeThreeSym"
           y="664.021"
           x="384.13156"
           id="tspan6348"
           sodipodi:role="line" /></text>
    </g>
    <text
       xml:space="preserve"
       style="font-size:20px;font-style:normal;font-variant:normal;font-weight:normal;font-stretch:normal;line-height:125%;letter-spacing:0px;word-spacing:0px;fill:#000000;fill-opacity:1;stroke:none;font-family:Symbol;-inkscape-font-specification:Symbol"
       x="94.717369"
       y="593.50916"
       id="text7688"
       sodipodi:linespacing="125%"><tspan
         sodipodi:role="line"
         id="tspan7690"
         x="94.717369"
         y="593.50916">t1</tspan></text>
    <text
       xml:space="preserve"
       style="font-size:20px;font-style:normal;font-variant:normal;font-weight:normal;font-stretch:normal;line-height:125%;letter-spacing:0px;word-spacing:0px;fill:#000000;fill-opacity:1;stroke:none;font-family:Symbol;-inkscape-font-specification:Symbol"
       x="185.22508"
       y="490.37247"
       id="text7692"
       sodipodi:linespacing="125%"><tspan
         sodipodi:role="line"
         id="tspan7694"
         x="185.22508"
         y="490.37247">t2</tspan></text>
    <text
       xml:space="preserve"
       style="font-size:20px;font-style:normal;font-variant:normal;font-weight:normal;font-stretch:normal;line-height:125%;letter-spacing:0px;word-spacing:0px;fill:#000000;fill-opacity:1;stroke:none;font-family:Symbol;-inkscape-font-specification:Symbol"
       x="547.25592"
       y="487.21521"
       id="text7696"
       sodipodi:linespacing="125%"><tspan
         sodipodi:role="line"
         id="tspan7698"
         x="547.25592"
         y="487.21521">t3</tspan></text>
    <text
       xml:space="preserve"
       style="font-size:20px;font-style:normal;font-variant:normal;font-weight:normal;font-stretch:normal;line-height:125%;letter-spacing:0px;word-spacing:0px;fill:#ff0000;fill-opacity:1;stroke:none;font-family:Symbol;-inkscape-font-specification:Symbol"
       x="342.03494"
       y="504.05383"
       id="text7719"
       sodipodi:linespacing="125%"><tspan
         sodipodi:role="line"
         id="tspan7721"
         x="342.03494"
         y="504.05383">dist</tspan></text>
    <path
       style="fill:none;stroke:#000000;stroke-width:1px;stroke-linecap:butt;stroke-linejoin:miter;stroke-opacity:1"
       d="m 352.5591,324.09086 13.6814,9.47174 7.3669,-9.47174"
       id="path7765"
       inkscape:path-effect="#path-effect7767"
       inkscape:original-d="m 352.5591,324.09086 13.6814,9.47174 7.3669,-9.47174"
       inkscape:connector-curvature="0" />
    <text
       xml:space="preserve"
       style="font-size:34.13172913px;font-style:normal;font-variant:normal;font-weight:normal;font-stretch:normal;line-height:125%;letter-spacing:0px;word-spacing:0px;fill:#ff0000;fill-opacity:1;stroke:none;font-family:Symbol;-inkscape-font-specification:Symbol"
       x="232.67258"
       y="572.15631"
       id="text6354"
       sodipodi:linespacing="125%"
       transform="scale(1.2519247,0.79877008)"><tspan
         sodipodi:role="line"
         id="tspan6356"
         x="232.67258"
         y="572.15631">φ</tspan></text>
    <path
       style="fill:none;stroke:#000000;stroke-width:1;stroke-linecap:butt;stroke-linejoin:miter;stroke-miterlimit:4.5999999;stroke-opacity:1;stroke-dasharray:none;marker-start:none;marker-mid:none;marker-end:none"
       d="m 248.25961,449.57409 c 1.40322,0.3508 4.56046,-0.35081 4.20966,1.05241 -0.35081,1.40322 -5.65607,-1.05241 -4.20966,-1.05241 11.80413,0 2.31771,0.10644 6.31449,2.10483 0.31377,0.15688 0.73864,-0.15689 1.05241,0 0.44374,0.22187 0.60868,0.83054 1.05242,1.05241 0.62754,0.31377 1.60871,-0.49611 2.10483,0 0.24805,0.24806 -0.24806,0.80436 0,1.05242 0.25324,0.25324 3.95641,-0.25325 4.20966,0 0.24805,0.24805 -0.24806,0.80436 0,1.05241 0.24805,0.24806 0.73864,-0.15688 1.05241,0 0.44374,0.22187 0.60868,0.83055 1.05242,1.05242 0.62754,0.31377 1.60872,-0.49612 2.10483,0 0.24806,0.24805 -0.24806,0.80436 0,1.05241 0.24806,0.24806 0.73864,-0.15688 1.05241,0 0.44374,0.22187 0.60868,0.83055 1.05242,1.05242 0.31377,0.15688 0.80436,-0.24806 1.05241,0 0.35165,0.35165 -0.35164,1.75318 0,2.10483 0.24806,0.24806 0.73865,-0.15689 1.05242,0 1.2629,0.63145 1.89435,2.5258 3.15725,3.15724 0.31377,0.15689 0.80435,-0.24805 1.05241,0 0.24806,0.24806 0,0.70161 0,1.05242 0,0.70161 -0.31377,1.47729 0,2.10483 0.15689,0.31377 0.73865,-0.15688 1.05242,0 0.44373,0.22187 0.70161,0.70161 1.05241,1.05242 0.35081,0.3508 0.83055,0.60867 1.05242,1.05241 0.15688,0.31377 -0.15689,0.73865 0,1.05242 0.22187,0.44373 0.89553,0.58176 1.05241,1.05241 0.22187,0.66561 -0.31377,1.47729 0,2.10483 0.15689,0.31377 0.80436,-0.24806 1.05242,0 0.70329,0.7033 -0.7033,1.40153 0,2.10483 0.24805,0.24806 1.05241,-0.3508 1.05241,0 0,0.35081 -1.05241,-0.3508 -1.05241,0 0,0.49611 0.89553,0.58176 1.05241,1.05242 0.22187,0.6656 -0.31377,1.47729 0,2.10483 0.15689,0.31377 0.80436,-0.24806 1.05242,0 0.24805,0.24805 -0.15689,0.73864 0,1.05241 0.22187,0.44374 0.83054,0.60868 1.05241,1.05242 0.15689,0.31377 -0.24805,0.80436 0,1.05241 0.24806,0.24806 0.89553,-0.31377 1.05242,0 0.70161,1.40322 -0.70161,3.85886 0,5.26208 0.15688,0.31377 0.70161,0 1.05241,0"
       id="path6148"
       inkscape:connector-curvature="0" />
  </g>
</svg>
